<svg width="25" height="20" viewBox="0 0 25 20" fill="none" xmlns="http://www.w3.org/2000/svg">
<path fill-rule="evenodd" clip-rule="evenodd" d="M7.22258 13.8655H21.1925C21.4119 13.8656 21.6224 13.9524 21.7779 14.1069C21.9335 14.2615 22.0216 14.4713 22.023 14.6905C22.023 15.1475 21.65 15.5178 21.1949 15.5178H18.5369C18.8466 15.9326 19.0202 16.4412 19.0202 16.9639C19.0202 18.2905 17.9411 19.3686 16.6133 19.3686C15.2855 19.3686 14.2064 18.2905 14.2064 16.9639C14.2059 16.4422 14.3756 15.9346 14.6896 15.5178H10.9104C11.22 15.9326 11.3936 16.4412 11.3936 16.9639C11.3936 18.2905 10.3145 19.3686 8.98671 19.3686C7.65892 19.3686 6.5798 18.2905 6.5798 16.9639C6.57934 16.4422 6.74898 15.9346 7.06305 15.5178H5.58982C5.27547 15.5178 4.99161 15.342 4.85085 15.0631C4.78085 14.9271 4.75034 14.7742 4.76278 14.6218C4.77522 14.4694 4.83011 14.3235 4.92123 14.2006L6.67598 11.3389L5.313 4.74592L4.75936 2.11624H1.80585C1.58623 2.11624 1.37559 2.02907 1.22029 1.87391C1.06499 1.71875 0.977745 1.50832 0.977745 1.28889C0.977745 1.06947 1.06499 0.859028 1.22029 0.703871C1.37559 0.548714 1.58623 0.461548 1.80585 0.461548H5.4303C5.81972 0.461548 6.16222 0.73811 6.24198 1.1178L6.36866 1.71311L23.6587 1.76233C23.7777 1.76303 23.8952 1.78959 24.003 1.84018C24.1107 1.89077 24.2062 1.96417 24.2827 2.0553C24.4375 2.24045 24.5009 2.4842 24.4586 2.72092L20.3808 11.7467C20.3104 12.1358 19.9726 12.417 19.5785 12.417L7.92401 12.4381L7.22258 13.8655ZM22.0243 3.34436H6.71351L8.28762 10.8092L18.8982 10.7905L22.0243 3.34436Z" fill="#1C1D1D"/>
</svg>
