<svg width="17" height="18" viewBox="0 0 17 18" fill="none" xmlns="http://www.w3.org/2000/svg">
<path fill-rule="evenodd" clip-rule="evenodd" d="M12.3052 11.3333L16.6395 15.6636C16.7918 15.8159 16.8774 16.0224 16.8773 16.2377C16.8772 16.4531 16.7915 16.6595 16.6391 16.8117C16.4866 16.9639 16.2799 17.0494 16.0644 17.0493C15.8489 17.0492 15.6422 16.9636 15.4898 16.8113L11.1556 12.4811C9.85993 13.4837 8.23061 13.9555 6.5991 13.8006C4.9676 13.6456 3.45645 12.8755 2.37309 11.6469C1.28973 10.4183 0.715533 8.82357 0.767303 7.18704C0.819074 5.55051 1.49293 3.99515 2.65178 2.83737C3.81063 1.67959 5.36743 1.00636 7.00547 0.954633C8.64352 0.90291 10.2398 1.47658 11.4695 2.55894C12.6992 3.6413 13.47 5.15104 13.6251 6.78104C13.7802 8.41104 13.308 10.0389 12.3044 11.3333H12.3052ZM7.20966 12.2195C8.49165 12.2195 9.72113 11.7107 10.6276 10.805C11.5341 9.89938 12.0434 8.67104 12.0434 7.39023C12.0434 6.10943 11.5341 4.88109 10.6276 3.97543C9.72113 3.06976 8.49165 2.56097 7.20966 2.56097C5.92768 2.56097 4.6982 3.06976 3.7917 3.97543C2.8852 4.88109 2.37593 6.10943 2.37593 7.39023C2.37593 8.67104 2.8852 9.89938 3.7917 10.805C4.6982 11.7107 5.92768 12.2195 7.20966 12.2195Z" fill="#1C1D1D"/>
</svg>
