<svg width="17" height="19" viewBox="0 0 17 19" fill="none" xmlns="http://www.w3.org/2000/svg">
<path d="M8.61193 7.95121C10.106 7.95121 11.3012 6.76584 11.3012 5.31706C11.3012 3.86828 10.106 2.68292 8.61193 2.68292C7.11786 2.68292 5.92261 3.86828 5.92261 5.31706C5.92261 6.76584 7.11786 7.95121 8.61193 7.95121ZM8.61193 9.70731C6.15112 9.70731 4.16489 7.74048 4.16489 5.31706C4.16489 2.89365 6.15112 0.926819 8.61193 0.926819C11.0727 0.926819 13.059 2.89365 13.059 5.31706C13.059 7.74048 11.0727 9.70731 8.61193 9.70731ZM2.4599 16.7317H14.764V15.5639C14.764 14.0273 12.7338 12.438 8.61193 12.438C4.49007 12.438 2.4599 14.0273 2.4599 15.5639V16.7317ZM8.61193 10.6819C14.4651 10.6819 16.5217 13.6058 16.5217 15.5639V18.4878H0.702179V15.5639C0.702179 13.6058 2.75871 10.6819 8.61193 10.6819Z" fill="#1C1D1D"/>
</svg>
